<svg width="343" height="50" viewBox="0 0 343 50" fill="none" xmlns="http://www.w3.org/2000/svg">
<g clip-path="url(#clip0_0_10)">
<rect width="343" height="50" rx="25" fill="url(#paint0_linear_0_10)"/>
<path d="M137.929 24.931C138.564 25.0443 139.102 25.3787 139.544 25.934C139.986 26.4893 140.207 27.1183 140.207 27.821C140.207 28.4217 140.048 28.9657 139.731 29.453C139.425 29.929 138.977 30.3087 138.388 30.592C137.799 30.864 137.113 31 136.331 31H131.605V19.185H136.11C136.915 19.185 137.606 19.321 138.184 19.593C138.762 19.865 139.198 20.2333 139.493 20.698C139.788 21.1513 139.935 21.6613 139.935 22.228C139.935 22.908 139.754 23.4747 139.391 23.928C139.028 24.3813 138.541 24.7157 137.929 24.931ZM133.543 24.149H135.94C136.575 24.149 137.068 24.0073 137.419 23.724C137.782 23.4293 137.963 23.01 137.963 22.466C137.963 21.9333 137.782 21.5197 137.419 21.225C137.068 20.919 136.575 20.766 135.94 20.766H133.543V24.149ZM136.161 29.419C136.818 29.419 137.334 29.2603 137.708 28.943C138.082 28.6257 138.269 28.1837 138.269 27.617C138.269 27.039 138.071 26.58 137.674 26.24C137.277 25.9 136.75 25.73 136.093 25.73H133.543V29.419H136.161ZM146.376 31.153C145.492 31.153 144.693 30.9547 143.979 30.558C143.265 30.15 142.704 29.5833 142.296 28.858C141.888 28.1213 141.684 27.2713 141.684 26.308C141.684 25.356 141.894 24.5117 142.313 23.775C142.732 23.0383 143.305 22.4717 144.03 22.075C144.755 21.6783 145.566 21.48 146.461 21.48C147.356 21.48 148.167 21.6783 148.892 22.075C149.617 22.4717 150.19 23.0383 150.609 23.775C151.028 24.5117 151.238 25.356 151.238 26.308C151.238 27.26 151.023 28.1043 150.592 28.841C150.161 29.5777 149.572 30.15 148.824 30.558C148.087 30.9547 147.271 31.153 146.376 31.153ZM146.376 29.47C146.875 29.47 147.339 29.351 147.77 29.113C148.212 28.875 148.569 28.518 148.841 28.042C149.113 27.566 149.249 26.988 149.249 26.308C149.249 25.628 149.119 25.0557 148.858 24.591C148.597 24.115 148.252 23.758 147.821 23.52C147.39 23.282 146.926 23.163 146.427 23.163C145.928 23.163 145.464 23.282 145.033 23.52C144.614 23.758 144.279 24.115 144.03 24.591C143.781 25.0557 143.656 25.628 143.656 26.308C143.656 27.3167 143.911 28.0987 144.421 28.654C144.942 29.198 145.594 29.47 146.376 29.47ZM157.217 31.153C156.333 31.153 155.534 30.9547 154.82 30.558C154.106 30.15 153.545 29.5833 153.137 28.858C152.729 28.1213 152.525 27.2713 152.525 26.308C152.525 25.356 152.735 24.5117 153.154 23.775C153.573 23.0383 154.146 22.4717 154.871 22.075C155.596 21.6783 156.407 21.48 157.302 21.48C158.197 21.48 159.008 21.6783 159.733 22.075C160.458 22.4717 161.031 23.0383 161.45 23.775C161.869 24.5117 162.079 25.356 162.079 26.308C162.079 27.26 161.864 28.1043 161.433 28.841C161.002 29.5777 160.413 30.15 159.665 30.558C158.928 30.9547 158.112 31.153 157.217 31.153ZM157.217 29.47C157.716 29.47 158.18 29.351 158.611 29.113C159.053 28.875 159.41 28.518 159.682 28.042C159.954 27.566 160.09 26.988 160.09 26.308C160.09 25.628 159.96 25.0557 159.699 24.591C159.438 24.115 159.093 23.758 158.662 23.52C158.231 23.282 157.767 23.163 157.268 23.163C156.769 23.163 156.305 23.282 155.874 23.52C155.455 23.758 155.12 24.115 154.871 24.591C154.622 25.0557 154.497 25.628 154.497 26.308C154.497 27.3167 154.752 28.0987 155.262 28.654C155.783 29.198 156.435 29.47 157.217 29.47ZM167.701 26.325L172.019 31H169.401L165.933 26.971V31H163.995V18.42H165.933V25.73L169.333 21.633H172.019L167.701 26.325ZM187.531 31H185.593L179.762 22.177V31H177.824V19.168H179.762L185.593 27.974V19.168H187.531V31ZM194.139 31.153C193.255 31.153 192.456 30.9547 191.742 30.558C191.028 30.15 190.467 29.5833 190.059 28.858C189.651 28.1213 189.447 27.2713 189.447 26.308C189.447 25.356 189.656 24.5117 190.076 23.775C190.495 23.0383 191.067 22.4717 191.793 22.075C192.518 21.6783 193.328 21.48 194.224 21.48C195.119 21.48 195.929 21.6783 196.655 22.075C197.38 22.4717 197.952 23.0383 198.372 23.775C198.791 24.5117 199.001 25.356 199.001 26.308C199.001 27.26 198.785 28.1043 198.355 28.841C197.924 29.5777 197.335 30.15 196.587 30.558C195.85 30.9547 195.034 31.153 194.139 31.153ZM194.139 29.47C194.637 29.47 195.102 29.351 195.533 29.113C195.975 28.875 196.332 28.518 196.604 28.042C196.876 27.566 197.012 26.988 197.012 26.308C197.012 25.628 196.881 25.0557 196.621 24.591C196.36 24.115 196.014 23.758 195.584 23.52C195.153 23.282 194.688 23.163 194.19 23.163C193.691 23.163 193.226 23.282 192.796 23.52C192.376 23.758 192.042 24.115 191.793 24.591C191.543 25.0557 191.419 25.628 191.419 26.308C191.419 27.3167 191.674 28.0987 192.184 28.654C192.705 29.198 193.357 29.47 194.139 29.47ZM213.497 21.633L210.59 31H208.55L206.663 24.081L204.776 31H202.736L199.812 21.633H201.784L203.739 29.164L205.728 21.633H207.751L209.655 29.13L211.593 21.633H213.497Z" fill="white"/>
</g>
<defs>
<linearGradient id="paint0_linear_0_10" x1="514.5" y1="25" x2="500.226" y2="-72.9193" gradientUnits="userSpaceOnUse">
<stop stop-color="#38B1C3"/>
<stop offset="1" stop-color="#F69D84"/>
</linearGradient>
<clipPath id="clip0_0_10">
<rect width="343" height="50" fill="white"/>
</clipPath>
</defs>
</svg>
